<svg xmlns="http://www.w3.org/2000/svg" width="20" height="20" viewBox="0 0 20 20"><path fill="currentColor" fill-rule="evenodd" d="M123,1067.14286 L123,1082.85714 C123,1083.45238 122.791668,1083.95833 122.374999,1084.375 C121.958329,1084.79167 121.452386,1085 120.857143,1085 L117.062498,1085 L117.062498,1077.09821 L119.741072,1077.09821 L120.142857,1074.0625 L117.062498,1074.0625 L117.062498,1072.14286 C117.062498,1071.81547 117.092261,1071.55506 117.151788,1071.36161 C117.211309,1071.16815 117.36012,1071.00446 117.598215,1070.87054 C117.83631,1070.7366 118.148805,1070.66964 118.535717,1070.66964 L120.142857,1070.66964 L120.142857,1067.99107 C119.517856,1067.90179 118.744054,1067.85714 117.821431,1067.85714 C116.630944,1067.85714 115.686014,1068.20684 114.986607,1068.90625 C114.2872,1069.60566 113.937502,1070.58035 113.937502,1071.83036 L113.937502,1074.0625 L111.214286,1074.0625 L111.214286,1077.09821 L113.937502,1077.09821 L113.937502,1085 L105.142857,1085 C104.547616,1085 104.041669,1084.79167 103.625,1084.375 C103.208331,1083.95833 103,1083.45238 103,1082.85714 L103,1067.14286 C103,1066.54761 103.208331,1066.04167 103.625,1065.625 C104.041669,1065.20833 104.547616,1065 105.142857,1065 L120.857143,1065 C121.452386,1065 121.958329,1065.20833 122.374999,1065.625 C122.791668,1066.04167 123,1066.54761 123,1067.14286 Z" transform="translate(-103 -1065)"/></svg>