<svg xmlns="http://www.w3.org/2000/svg" width="24" height="20" viewBox="0 0 24 20"><path fill="#ffffff" fill-rule="evenodd" d="M167.515623,1070 C167.546874,1070.12821 167.562503,1070.33654 167.562503,1070.625 C167.562503,1072.32373 167.250006,1074.01442 166.625,1075.69711 C166,1077.37982 165.117194,1078.91826 163.97656,1080.3125 C162.835931,1081.70674 161.359383,1082.83653 159.546874,1083.70192 C157.734366,1084.56731 155.734389,1085 153.546874,1085 C150.796861,1085 148.281261,1084.2468 146,1082.74038 C146.343752,1082.77244 146.734373,1082.78846 147.171875,1082.78846 C149.453137,1082.78846 151.5,1082.06731 153.312503,1080.625 C152.218743,1080.625 151.257817,1080.29648 150.429687,1079.63942 C149.601558,1078.98237 149.031251,1078.15706 148.71875,1077.16346 C149.031251,1077.19551 149.328123,1077.21154 149.609375,1077.21154 C150.046877,1077.21154 150.484373,1077.16346 150.921875,1077.06731 C150.171871,1076.90705 149.5,1076.58654 148.90625,1076.10577 C148.312497,1075.625 147.843752,1075.04007 147.5,1074.35096 C147.156248,1073.66185 146.984375,1072.91667 146.984375,1072.11538 L146.984375,1072.01923 C147.671878,1072.4359 148.406246,1072.66025 149.1875,1072.69231 C147.718743,1071.66666 146.984375,1070.25642 146.984375,1068.46154 C146.984375,1067.5641 147.218747,1066.71475 147.6875,1065.91346 C148.906256,1067.48398 150.398429,1068.73397 152.164063,1069.66346 C153.929697,1070.59296 155.812491,1071.10577 157.812503,1071.20192 C157.75,1070.81731 157.718749,1070.43269 157.718749,1070.04808 C157.718749,1068.66987 158.195309,1067.48398 159.14844,1066.49039 C160.101566,1065.49679 161.249994,1065 162.593749,1065 C164.031257,1065 165.234371,1065.52884 166.203126,1066.58654 C167.328131,1066.36218 168.374994,1065.96154 169.343749,1065.38462 C168.968749,1066.57052 168.250006,1067.5 167.187497,1068.17308 C168.125006,1068.04487 169.062497,1067.77244 170,1067.35577 C169.312497,1068.38142 168.484377,1069.26282 167.515623,1070 Z" transform="translate(-146 -1065)"/></svg>