<svg xmlns="http://www.w3.org/2000/svg" width="197" height="60" viewBox="0 0 197 60"><g fill="none" fill-rule="evenodd"><path fill="#25A6AC" d="M30.3395657,60 C32.3752251,59.9776225 34.3619663,59.7529801 36.2808811,59.3444604 L36.2808811,0.655366121 C34.3619663,0.246846477 32.3752251,0.0223775092 30.3395657,0 L30.3395657,60 Z M24.1892201,59.439001 L24.1892201,52.4008407 L10.0455935,52.4008407 C13.9718922,55.9016199 18.8238219,58.3851765 24.1892201,59.439001 Z M42.4310533,57.3166071 C44.5562228,56.3484762 46.5478211,55.1388764 48.3723687,53.7242362 L48.3723687,6.27576377 C46.5478211,4.86095009 44.5562228,3.65152378 42.4310533,2.68321947 L42.4310533,57.3166071 Z M54.5227143,12.7031395 L54.5227143,47.296687 C57.9776977,42.4081554 60.0083265,36.44134 60.0083265,29.9999133 C60.0083265,23.5584865 57.9776977,17.5916712 54.5227143,12.7031395 Z M0,29.9999133 C0,31.002391 0.0501325593,31.9932463 0.14623442,32.970571 L24.1892201,32.970571 L24.1892201,27.0292556 L0.14623442,27.0292556 C0.0501325593,28.0065803 0,28.9974355 0,29.9999133 Z M1.60892556,20.2847784 L24.1892201,20.2847784 L24.1892201,14.343463 L4.40507339,14.343463 C3.26711634,16.2002758 2.32535279,18.1901394 1.60892556,20.2847784 Z M4.40507339,45.6563636 L24.1892201,45.6563636 L24.1892201,39.7150482 L1.60892556,39.7150482 C2.32535279,41.8096871 3.26711634,43.7995507 4.40507339,45.6563636 Z M24.1892201,7.59898578 L24.1892201,0.560825481 C18.8238219,1.61465004 13.9718922,4.09820662 10.0455935,7.59898578 L24.1892201,7.59898578 L24.1892201,7.59898578 Z"/><polyline fill="#1A1919" points="69.243 2.419 80.338 2.419 80.338 5.333 72.449 5.333 72.449 8.434 79.401 8.434 79.401 11.349 72.449 11.349 72.449 16.989 69.243 16.989 69.243 2.419"/><path fill="#1A1919" d="M89.7674647 10.8905613 87.8317234 6.16543745 85.8959822 10.8905613 89.7674647 10.8905613ZM86.3953996 2.31459771 89.3513124 2.31459771 95.5958518 16.9893866 92.2446029 16.9893866 90.9123605 13.7214029 84.7509129 13.7214029 83.4188439 16.9893866 80.1508603 16.9893866 86.3953996 2.31459771 86.3953996 2.31459771ZM95.9917082 9.74566544 95.9917082 9.70403287C95.9917082 5.56176511 99.1141513 2.1688837 103.58948 2.1688837 106.337056 2.1688837 107.981369 3.08480035 109.334428 4.41704276L107.294605 6.76910979C106.170526 5.74911169 105.02563 5.12462307 103.568663 5.12462307 101.112515 5.12462307 99.342957 7.16444578 99.342957 9.66240029L99.342957 9.70403287C99.342957 12.2019874 101.070709 14.2834427 103.568663 14.2834427 105.233793 14.2834427 106.253791 13.6173215 107.398687 12.5766806L109.438683 14.6373196C107.93991 16.2401737 106.274607 17.2393555 103.464408 17.2393555 99.1764267 17.2393555 95.9917082 13.9295658 95.9917082 9.74566544"/><polygon fill="#1A1919" points="112.083 16.989 115.288 16.989 115.288 2.419 112.083 2.419"/><polyline fill="#1A1919" points="119.056 2.419 122.012 2.419 128.839 11.39 128.839 2.419 132.003 2.419 132.003 16.989 129.276 16.989 122.22 7.727 122.22 16.989 119.056 16.989 119.056 2.419"/><path fill="#1A1919" d="M134.994839,9.74566544 L134.994839,9.70403287 C134.994839,5.56176511 138.221364,2.1688837 142.634243,2.1688837 C145.256922,2.1688837 146.838787,2.87663748 148.358376,4.16707384 L146.339196,6.60257948 C145.21529,5.66584654 144.216108,5.12462307 142.529988,5.12462307 C140.198738,5.12462307 138.346088,7.18543554 138.346088,9.66240029 L138.346088,9.70403287 C138.346088,12.3683442 140.177921,14.3250752 142.759141,14.3250752 C143.92468,14.3250752 144.965494,14.0336472 145.777329,13.4507912 L145.777329,11.3693359 L142.550978,11.3693359 L142.550978,8.60094309 L148.878783,8.60094309 L148.878783,14.9287476 C147.38001,16.1985411 145.319198,17.2393555 142.654886,17.2393555 C138.117282,17.2393555 134.994839,14.0544635 134.994839,9.74566544"/><polyline fill="#1A1919" points="69.243 23.235 72.449 23.235 72.449 29.001 78.36 29.001 78.36 23.235 81.566 23.235 81.566 37.806 78.36 37.806 78.36 31.956 72.449 31.956 72.449 37.806 69.243 37.806 69.243 23.235"/><polygon fill="#1A1919" points="85.459 37.806 88.665 37.806 88.665 23.235 85.459 23.235"/><path fill="#1A1919" d="M91.5791756,35.6825863 L93.4732843,33.4137844 C94.784537,34.4960579 96.1584119,35.1829954 97.823715,35.1829954 C99.1349676,35.1829954 99.9259865,34.6625882 99.9259865,33.8091204 L99.9259865,33.7674878 C99.9259865,32.9556526 99.4263956,32.5395004 96.9910635,31.9150117 C94.0561404,31.1656254 92.1618582,30.3537902 92.1618582,27.4604996 L92.1618582,27.4188671 C92.1618582,24.7751985 94.2849461,23.0268039 97.2615017,23.0268039 C99.3849365,23.0268039 101.19578,23.6929251 102.673736,24.8794535 L101.008433,27.2939693 C99.7179971,26.398869 98.4480301,25.8576455 97.2200426,25.8576455 C95.9918816,25.8576455 95.3465767,26.4196853 95.3465767,27.127439 L95.3465767,27.1690716 C95.3465767,28.1264474 95.9710654,28.4386917 98.4898362,29.0841701 C101.445576,29.8541993 103.110705,30.9158299 103.110705,33.4552435 L103.110705,33.4968761 C103.110705,36.3903401 100.904352,38.013837 97.7610926,38.013837 C95.5549131,38.013837 93.3275703,37.2438079 91.5791756,35.6825863"/><polyline fill="#1A1919" points="109.189 26.191 104.756 26.191 104.756 23.235 116.828 23.235 116.828 26.191 112.395 26.191 112.395 37.806 109.189 37.806 109.189 26.191"/><path fill="#1A1919" d="M130.130246 30.561953 130.130246 30.5203205C130.130246 28.0225394 128.29824 25.9409107 125.717193 25.9409107 123.136321 25.9409107 121.345946 27.9809068 121.345946 30.4786879L121.345946 30.5203205C121.345946 33.018275 123.17778 35.0997303 125.758999 35.0997303 128.340046 35.0997303 130.130246 33.0599075 130.130246 30.561953ZM117.994698 30.561953 117.994698 30.5203205C117.994698 26.3780527 121.262855 22.9851713 125.758999 22.9851713 130.255144 22.9851713 133.481322 26.3364201 133.481322 30.4786879L133.481322 30.5203205C133.481322 34.6625882 130.213338 38.0556431 125.717193 38.0556431 121.221222 38.0556431 117.994698 34.7042208 117.994698 30.561953L117.994698 30.561953ZM142.474131 30.3121576C144.03518 30.3121576 144.93028 29.4795061 144.93028 28.2515186L144.93028 28.209886C144.93028 26.836011 143.972904 26.1282572 142.411683 26.1282572L139.226791 26.1282572 139.226791 30.3121576 142.474131 30.3121576ZM136.021429 23.2349667 142.682294 23.2349667C144.53477 23.2349667 145.971094 23.7553739 146.928644 24.7129232 147.740479 25.5245849 148.177447 26.6694807 148.177447 28.0433557L148.177447 28.0849883C148.177447 30.4370553 146.907827 31.9150117 145.055178 32.6017757L148.614763 37.8056742 144.867831 37.8056742 141.745561 33.1429992 139.226791 33.1429992 139.226791 37.8056742 136.021429 37.8056742 136.021429 23.2349667 136.021429 23.2349667Z"/><polyline fill="#1A1919" points="154.735 32.061 149.136 23.235 152.882 23.235 156.358 29.084 159.897 23.235 163.54 23.235 157.94 31.998 157.94 37.806 154.735 37.806 154.735 32.061"/><path fill="#1A1919" d="M175.987834 26.8776436 175.987834 26.836011C175.987834 26.0033595 175.425794 25.4829523 174.613959 25.4829523 173.760491 25.4829523 173.198451 26.0867981 173.198451 26.9609087L173.198451 27.0025413C173.198451 27.6478462 173.44842 28.1264474 174.051919 28.8133849 175.321713 28.3347837 175.987834 27.7933868 175.987834 26.8776436ZM175.821304 34.5585068 173.031921 31.7276651C172.074545 32.227256 171.679036 32.9348363 171.679036 33.6425901L171.679036 33.6842227C171.679036 34.7042208 172.53233 35.3911583 173.718859 35.3911583 174.447429 35.3911583 175.155183 35.078914 175.821304 34.5585068ZM177.611504 36.3903401C176.424976 37.3687056 175.030285 38.013837 173.344166 38.013837 170.554956 38.013837 168.452685 36.3903401 168.452685 33.8091204L168.452685 33.7674878C168.452685 31.9150117 169.451867 30.6035856 171.283527 29.7709341 170.575773 28.7717523 170.263528 27.8560091 170.263528 26.8568273L170.263528 26.8151947C170.263528 24.8168311 171.866383 22.9851713 174.676408 22.9851713 177.153546 22.9851713 178.777217 24.6086682 178.777217 26.6486644L178.777217 26.690297C178.777217 28.6468546 177.528239 29.7917504 175.717222 30.4995042L177.653137 32.4352454C178.131912 31.6860326 178.610686 30.8325648 179.068645 29.9374644L181.420885 31.2280742C180.858845 32.2480723 180.234357 33.3303458 179.505787 34.3087113L181.649864 36.4526155 179.297624 38.0971022 177.611504 36.3903401 177.611504 36.3903401ZM80.7331959 51.3782406 80.7331959 51.336608C80.7331959 48.838827 78.9017095 46.7571982 76.3204899 46.7571982 73.7392702 46.7571982 71.9490695 48.7971944 71.9490695 51.2949755L71.9490695 51.336608C71.9490695 53.8345626 73.7809028 55.9160178 76.3621225 55.9160178 78.9431686 55.9160178 80.7331959 53.8761951 80.7331959 51.3782406ZM68.5978207 51.3782406 68.5978207 51.336608C68.5978207 47.1943403 71.8659778 43.8014589 76.3621225 43.8014589 80.8582671 43.8014589 84.0844447 47.1527077 84.0844447 51.2949755L84.0844447 51.336608C84.0844447 55.4788758 80.8166345 58.8719307 76.3204899 58.8719307 71.8243452 58.8719307 68.5978207 55.5205084 68.5978207 51.3782406L68.5978207 51.3782406ZM86.4165628 52.3774224 86.4165628 44.0512543 89.6220976 44.0512543 89.6220976 52.2941573C89.6220976 54.6670406 90.808626 55.8952016 92.7653571 55.8952016 94.7219146 55.8952016 95.908443 54.7088466 95.908443 52.3982387L95.908443 44.0512543 99.1139778 44.0512543 99.1139778 52.273341C99.1139778 56.6862205 96.6368396 58.8511144 92.723551 58.8511144 88.8104359 58.8511144 86.4165628 56.6654042 86.4165628 52.3774224M109.043347 51.1284452C110.604395 51.1284452 111.499669 50.2957937 111.499669 49.0678062L111.499669 49.0261736C111.499669 47.6522986 110.54212 46.9445448 108.980898 46.9445448L105.79618 46.9445448 105.79618 51.1284452 109.043347 51.1284452ZM102.590645 44.0512543 109.251683 44.0512543C111.103986 44.0512543 112.540483 44.5716615 113.497859 45.5292107 114.309694 46.3408725 114.746663 47.4857683 114.746663 48.8596433L114.746663 48.9012759C114.746663 51.2533429 113.477043 52.7312993 111.624393 53.4180633L115.183978 58.6219618 111.437047 58.6219618 108.314777 53.9592868 105.79618 53.9592868 105.79618 58.6219618 102.590645 58.6219618 102.590645 44.0512543 102.590645 44.0512543ZM116.787353 56.4988739 118.681462 54.230072C119.992714 55.3123455 121.366589 55.999283 123.031892 55.999283 124.343318 55.999283 125.134164 55.4788758 125.134164 54.625408L125.134164 54.5837754C125.134164 53.7719402 124.634573 53.3557879 122.199241 52.7312993 119.264318 51.981913 117.370036 51.1700777 117.370036 48.2767872L117.370036 48.2351547C117.370036 45.5914861 119.493297 43.8430914 122.469853 43.8430914 124.593114 43.8430914 126.403957 44.5092127 127.881914 45.695741L126.216611 48.1102569C124.926174 47.2151566 123.656381 46.6739331 122.428393 46.6739331 121.200059 46.6739331 120.554928 47.2359729 120.554928 47.9437266L120.554928 47.9853592C120.554928 48.942735 121.179243 49.2549793 123.698013 49.9004577 126.653753 50.6704868 128.319056 51.7321175 128.319056 54.2715311L128.319056 54.3131637C128.319056 57.2066277 126.112703 58.8301246 122.969443 58.8301246 120.76309 58.8301246 118.535748 58.0600955 116.787353 56.4988739"/><polyline fill="#1A1919" points="131.275 44.051 142.266 44.051 142.266 46.903 134.46 46.903 134.46 49.859 141.329 49.859 141.329 52.71 134.46 52.71 134.46 55.77 142.37 55.77 142.37 58.622 131.275 58.622 131.275 44.051"/><polyline fill="#1A1919" points="145.659 44.051 148.865 44.051 148.865 55.708 156.13 55.708 156.13 58.622 145.659 58.622 145.659 44.051"/><polyline fill="#1A1919" points="154.631 44.051 158.17 44.051 161.979 54.313 165.788 44.051 169.243 44.051 163.353 58.726 160.522 58.726 154.631 44.051"/><polyline fill="#1A1919" points="171.263 44.051 182.254 44.051 182.254 46.903 174.447 46.903 174.447 49.859 181.317 49.859 181.317 52.71 174.447 52.71 174.447 55.77 182.358 55.77 182.358 58.622 171.263 58.622 171.263 44.051"/><path fill="#1A1919" d="M184.501696,56.4988739 L186.395978,54.230072 C187.707404,55.3123455 189.081279,55.999283 190.746582,55.999283 C192.058008,55.999283 192.849027,55.4788758 192.849027,54.625408 L192.849027,54.5837754 C192.849027,53.7719402 192.349436,53.3557879 189.91393,52.7312993 C186.978834,51.981913 185.084552,51.1700777 185.084552,48.2767872 L185.084552,48.2351547 C185.084552,45.5914861 187.207813,43.8430914 190.184542,43.8430914 C192.307804,43.8430914 194.118821,44.5092127 195.596777,45.695741 L193.931474,48.1102569 C192.640864,47.2151566 191.371071,46.6739331 190.14291,46.6739331 C188.914749,46.6739331 188.269444,47.2359729 188.269444,47.9437266 L188.269444,47.9853592 C188.269444,48.942735 188.893932,49.2549793 191.412703,49.9004577 C194.368616,50.6704868 196.033919,51.7321175 196.033919,54.2715311 L196.033919,54.3131637 C196.033919,57.2066277 193.827392,58.8301246 190.684133,58.8301246 C188.477607,58.8301246 186.250264,58.0600955 184.501696,56.4988739"/></g></svg>